_________________________  Visit us at _________________________
  
http://p2pdl.com  ____________________________  http://p2pdl.com

 
http://i.imgur.com/z14aQ.jpg


Release Title: The Chef (2012) 
Original Title: Comme un chef

					
Genre: Comedy
IMDb Rating: 6.3/10 
http://cinemahouse.in/movie/190/Comme+un+chef


Plot: A veteran chef faces off against his restaurant group's new CEO, who wants to the establishment to lose a star from its rating in order to bring in a younger chef who specializes in molecular gastronomy.


Director: Daniel Cohen


Stars:  Jean Reno, Michaël Youn and Raphaëlle Agogué.


General
Format                         : Matroska
Format version                 : Version 2
File size                      : 691 MiB
Duration                       : 1h 24mn
Overall bit rate               : 1 143 Kbps
Movie name                     : The Chef 2012 720p BRRip x264 AC3 - ViZNU [P2PDL]
Source                         : 720p.BluRay.x264.DTS-HDChina(Thanks)

Video
ID                             : 1
Format                         : AVC
Format/Info                    : Advanced Video Codec
Codec ID                       : V_MPEG4/ISO/AVC
Duration                       : 1h 24mn
Bit rate                       : 1 014 Kbps
Width                          : 1 280 pixels
Height                         : 544 pixels
Display aspect ratio           : 2.35:1
Frame rate                     : 24.000 fps
Color space                    : YUV
Chroma subsampling             : 4:2:0
Stream size                    : 600 MiB (87%)
Writing library                : x264
Default                        : Yes


Audio
ID                             : 2
Format                         : AC-3
Format/Info                    : Audio Coding 3
Mode extension                 : CM (complete main)
Codec ID                       : A_AC3
Duration                       : 1h 24mn
Bit rate mode                  : Constant
Bit rate                       : 128 Kbps
Channel(s)                     : 2 channels
Channel positions              : Front: L R
Sampling rate                  : 44.1 KHz
Stream size                    : 77.4 MiB (11%)
Language                       : French
Default                        : Yes


Subtitle: Yes(English)


Screens:

 
http://i.imgbox.com/acwgG69U.png
 
http://i.imgbox.com/abefiYY3.png
 
http://i.imgbox.com/aduN7TWP.png
 
http://i.imgbox.com/accA4KVD.png
 
http://i.imgbox.com/acnXy7B1.png 
http://i.imgbox.com/abbZcBy6.png
 
http://i.imgbox.com/acnQG5bz.png
 
http://i.imgbox.com/adurNULa.png
 
http://i.imgbox.com/abzrcseQ.png
 
http://i.imgbox.com/accVZ8lE.png


------------------------------------------------------------------------


Recommend you to use VLC player. Check sample to be sure. Enjoy!


Greets to: srkfan, Vitamin_X, MgB, Feel_Free, staff members at ExtraTorrent, TPB,KAT, 1337x, PublicHD, Ahashare,
SilverTorrent, TorrentMafia, P2PDL, and all others

Encoder Notes: Looking For Early Access To Anything You Can Provide DVDScr, R5, DVDRips, BluRay, Direct Audio, Early
Music Releases, Seedboxes, Links, Dedicated Servers anything u can provide, Advance / Promo CDs/DVDs. If You Got anything
to offer contact me at "contact@tinym.eu"
Facebook Fan Page:
